<?xml version="1.0" encoding="UTF-8" standalone="no"?>
<!DOCTYPE svg PUBLIC "-//W3C//DTD SVG 1.1//EN"
 "http://www.w3.org/Graphics/SVG/1.1/DTD/svg11.dtd">
<!-- Generated by graphviz version 2.40.1 (20161225.0304)
 -->
<!-- Title: tree Pages: 1 -->
<svg width="171pt" height="157pt"
 viewBox="0.00 0.00 171.00 157.40" xmlns="http://www.w3.org/2000/svg" xmlns:xlink="http://www.w3.org/1999/xlink">
<g id="graph0" class="graph" transform="scale(1 1) rotate(0) translate(4 153.4)">
<title>tree</title>
<polygon fill="#ffffff" stroke="transparent" points="-4,4 -4,-153.4 167,-153.4 167,4 -4,4"/>
<!-- n0 -->
<g id="node1" class="node">
<title>n0</title>
<polygon fill="none" stroke="#000000" points="40,-124.1 40,-148.9 102,-148.9 102,-124.1 40,-124.1"/>
<text text-anchor="middle" x="49.75" y="-132.3" font-family="Times,serif" font-size="14.00" fill="#000000"> </text>
<polyline fill="none" stroke="#000000" points="59.5,-124.1 59.5,-148.9 "/>
<text text-anchor="middle" x="71" y="-132.3" font-family="Times,serif" font-size="14.00" fill="#000000">5</text>
<polyline fill="none" stroke="#000000" points="82.5,-124.1 82.5,-148.9 "/>
<text text-anchor="middle" x="92.25" y="-132.3" font-family="Times,serif" font-size="14.00" fill="#000000"> </text>
</g>
<!-- n1 -->
<g id="node2" class="node">
<title>n1</title>
<polygon fill="none" stroke="#000000" points="0,-62.3 0,-87.1 62,-87.1 62,-62.3 0,-62.3"/>
<text text-anchor="middle" x="9.75" y="-70.5" font-family="Times,serif" font-size="14.00" fill="#000000"> </text>
<polyline fill="none" stroke="#000000" points="19.5,-62.3 19.5,-87.1 "/>
<text text-anchor="middle" x="31" y="-70.5" font-family="Times,serif" font-size="14.00" fill="#000000">7</text>
<polyline fill="none" stroke="#000000" points="42.5,-62.3 42.5,-87.1 "/>
<text text-anchor="middle" x="52.25" y="-70.5" font-family="Times,serif" font-size="14.00" fill="#000000"> </text>
</g>
<!-- n0&#45;&gt;n1 -->
<g id="edge1" class="edge">
<title>n0:c&#45;&gt;n1:value</title>
<path fill="none" stroke="#000000" d="M47.0313,-128.7188C43.6914,-119.9648 38.2642,-105.7397 34.6634,-96.3019"/>
<ellipse fill="#000000" stroke="#000000" cx="48.5741" cy="-132.7628" rx="4" ry="4"/>
<polygon fill="#000000" stroke="#000000" points="37.8348,-94.7955 31,-86.7 31.2946,-97.2907 37.8348,-94.7955"/>
</g>
<!-- n2 -->
<g id="node3" class="node">
<title>n2</title>
<polygon fill="none" stroke="#000000" points="80,-62.3 80,-87.1 142,-87.1 142,-62.3 80,-62.3"/>
<text text-anchor="middle" x="89.75" y="-70.5" font-family="Times,serif" font-size="14.00" fill="#000000"> </text>
<polyline fill="none" stroke="#000000" points="99.5,-62.3 99.5,-87.1 "/>
<text text-anchor="middle" x="111" y="-70.5" font-family="Times,serif" font-size="14.00" fill="#000000">3</text>
<polyline fill="none" stroke="#000000" points="122.5,-62.3 122.5,-87.1 "/>
<text text-anchor="middle" x="132.25" y="-70.5" font-family="Times,serif" font-size="14.00" fill="#000000"> </text>
</g>
<!-- n0&#45;&gt;n2 -->
<g id="edge2" class="edge">
<title>n0:c&#45;&gt;n2:value</title>
<path fill="none" stroke="#000000" d="M94.9688,-128.7188C98.3086,-119.9648 103.7358,-105.7397 107.3366,-96.3019"/>
<ellipse fill="#000000" stroke="#000000" cx="93.4259" cy="-132.7628" rx="4" ry="4"/>
<polygon fill="#000000" stroke="#000000" points="110.7054,-97.2907 111,-86.7 104.1652,-94.7955 110.7054,-97.2907"/>
</g>
<!-- n3 -->
<g id="node4" class="node">
<title>n3</title>
<polygon fill="none" stroke="#000000" points="101,-.5 101,-25.3 163,-25.3 163,-.5 101,-.5"/>
<text text-anchor="middle" x="110.75" y="-8.7" font-family="Times,serif" font-size="14.00" fill="#000000"> </text>
<polyline fill="none" stroke="#000000" points="120.5,-.5 120.5,-25.3 "/>
<text text-anchor="middle" x="132" y="-8.7" font-family="Times,serif" font-size="14.00" fill="#000000">1</text>
<polyline fill="none" stroke="#000000" points="143.5,-.5 143.5,-25.3 "/>
<text text-anchor="middle" x="153.25" y="-8.7" font-family="Times,serif" font-size="14.00" fill="#000000"> </text>
</g>
<!-- n2&#45;&gt;n3 -->
<g id="edge3" class="edge">
<title>n2:c&#45;&gt;n3:value</title>
<path fill="none" stroke="#000000" d="M132,-66.4765C132,-57.8572 132,-44.3037 132,-35.0303"/>
<ellipse fill="#000000" stroke="#000000" cx="132" cy="-70.7" rx="4" ry="4"/>
<polygon fill="#000000" stroke="#000000" points="135.5001,-34.9 132,-24.9 128.5001,-34.9 135.5001,-34.9"/>
</g>
</g>
</svg>
